<svg width="602" height="734" viewBox="0 0 602 734" xmlns="http://www.w3.org/2000/svg">
  <defs>
    <linearGradient x1="50%" y1="0%" x2="50%" y2="100%" id="nvim-gradient-1">
      <stop stop-color="#16B0ED" stop-opacity="0.8" offset="0%"/>
      <stop stop-color="#0F59B2" stop-opacity="0.84" offset="100%"/>
    </linearGradient>
    <linearGradient x1="50%" y1="0%" x2="50%" y2="100%" id="nvim-gradient-2">
      <stop stop-color="#7DB643" offset="0%"/>
      <stop stop-color="#367533" offset="100%"/>
    </linearGradient>
    <linearGradient x1="50%" y1="0%" x2="50%" y2="100%" id="nvim-gradient-3">
      <stop stop-color="#88C649" stop-opacity="0.8" offset="0%"/>
      <stop stop-color="#439240" stop-opacity="0.84" offset="100%"/>
    </linearGradient>
  </defs>
  <g transform="translate(2, 3)" fill="none">
    <path d="M0,155.5704 L155,-1 L155,727 L0,572.238 L0,155.5704 Z" fill="url(#nvim-gradient-1)"/>
    <path d="M443.06,156.982 L600,-1 L596.819,727 L442,572.22 L443.06,156.982 Z" fill="url(#nvim-gradient-2)" transform="translate(521, 363.5) scale(-1, 1) translate(-521, -363.5)"/>
    <path d="M154.986,0 L558,615.19 L445.225,728 L42,114.172 L154.986,0 Z" fill="url(#nvim-gradient-3)"/>
    <path d="M155,283.832 L154.787,308 L31,124.711 L42.462,113 L155,283.832 Z" fill="#000000" fill-opacity="0.13"/>
  </g>
</svg>

